<svg id="Layer_1" data-name="Layer 1" xmlns="http://www.w3.org/2000/svg" viewBox="0 0 501 501"><defs><style>.cls-1{stroke:#000;stroke-miterlimit:10;opacity:0;}.cls-2{fill:#fbf7f4;}</style></defs><title>safari-pinned-icon</title><rect class="cls-1" x="0.5" y="0.5" width="500" height="500"/><path class="cls-2" d="M135.76,285.47" transform="translate(0.5 0.5)"/><rect x="0.5" y="0.5" width="500" height="500"/><path class="cls-2" d="M295.15,254.14a153.41,153.41,0,0,0,19-18.45,78.93,78.93,0,0,0,13.56-22.28,96.78,96.78,0,0,0,6.38-27.73q1.35-15.33-2.16-35.32-4.75-27-18.41-43.25a81.6,81.6,0,0,0-33-23.9,122.15,122.15,0,0,0-42.17-8.14,232.15,232.15,0,0,0-45.64,3.5q-9.76,1.71-21.3,4.23t-23.69,5.62q-12.16,3.1-24.19,6.9t-22.39,7.54L158,425l63.68-11.23L199.23,286.39l38.12-6.72,88,115.81,73.44-13ZM256.74,213q-14.6,15-41.09,19.71l-25.11,4.42-16.63-94.36a73.29,73.29,0,0,1,14.31-4.44c6.3-1.42,12.7-2.72,19.21-3.86q25.09-4.44,40.21,5.13t18.79,30.47Q271.35,198,256.74,213Z" transform="translate(0.5 0.5)"/></svg>